<svg width="24" height="24" viewBox="0 0 24 24" fill="none" xmlns="http://www.w3.org/2000/svg">
<rect width="24" height="24" transform="translate(0 24) rotate(-90)" fill="white"/>
<path d="M21.1 8.875L12.7 17.3C12.6 17.4 12.4917 17.471 12.375 17.513C12.2583 17.555 12.1333 17.5757 12 17.575C11.8667 17.575 11.7417 17.5543 11.625 17.513C11.5083 17.4717 11.4 17.4007 11.3 17.3L2.875 8.875C2.64167 8.64166 2.525 8.35 2.525 8C2.525 7.65 2.65 7.35 2.9 7.1C3.15 6.85 3.44167 6.725 3.775 6.725C4.10833 6.725 4.4 6.85 4.65 7.1L12 14.45L19.35 7.1C19.5833 6.86666 19.871 6.75 20.213 6.75C20.555 6.75 20.8507 6.875 21.1 7.125C21.35 7.375 21.475 7.66666 21.475 8C21.475 8.33333 21.35 8.625 21.1 8.875Z" fill="#28C9AE"/>
</svg>
