<svg width="24" height="24" viewBox="0 0 24 24" fill="none" xmlns="http://www.w3.org/2000/svg">
<path d="M2.9 15.125L11.3 6.7C11.4 6.6 11.5083 6.529 11.625 6.487C11.7417 6.445 11.8667 6.42434 12 6.425C12.1333 6.425 12.2583 6.44567 12.375 6.487C12.4917 6.52834 12.6 6.59934 12.7 6.7L21.125 15.125C21.3583 15.3583 21.475 15.65 21.475 16C21.475 16.35 21.35 16.65 21.1 16.9C20.85 17.15 20.5583 17.275 20.225 17.275C19.8917 17.275 19.6 17.15 19.35 16.9L12 9.55L4.65 16.9C4.41667 17.1333 4.129 17.25 3.787 17.25C3.445 17.25 3.14933 17.125 2.9 16.875C2.65 16.625 2.525 16.3333 2.525 16C2.525 15.6667 2.65 15.375 2.9 15.125Z" fill="white"/>
</svg>
